<svg width="80" height="80" viewBox="0 0 80 80" fill="none" xmlns="http://www.w3.org/2000/svg">
<g clip-path="url(#clip0_24226_1156)">
<mask id="mask0_24226_1156" style="mask-type:luminance" maskUnits="userSpaceOnUse" x="0" y="0" width="80" height="80">
<path d="M80 0H0V80H80V0Z" fill="white"/>
</mask>
<g mask="url(#mask0_24226_1156)">
<path d="M40 0C17.9064 0 0 17.9064 0 40C0 62.0862 17.9064 80 40 80C62.0936 80 80 62.0936 80 40C79.9928 17.9064 62.0862 0 40 0ZM30.0018 56.6612H23.3388V23.3316H30.0018V56.6612ZM56.6612 56.6612H36.6648V49.9982H56.6612V56.6612ZM56.6612 43.3278H36.6648V36.6648H56.6612V43.3278ZM56.6612 29.9946H36.6648V23.3316H56.6612V29.9946Z" fill="#92003B"/>
</g>
</g>
<defs>
<clipPath id="clip0_24226_1156">
<rect width="80" height="80" fill="white"/>
</clipPath>
</defs>
</svg>
