<svg width="70" height="70" viewBox="0 0 70 70" fill="none" xmlns="http://www.w3.org/2000/svg">
<path d="M8.75 35C8.75 40.1918 10.2895 45.2669 13.1739 49.5837C16.0583 53.9005 20.158 57.265 24.9546 59.2518C29.7511 61.2386 35.0291 61.7585 40.1211 60.7456C45.2131 59.7328 49.8904 57.2327 53.5616 53.5616C57.2327 49.8904 59.7328 45.2131 60.7456 40.1211C61.7585 35.0291 61.2386 29.7511 59.2518 24.9546C57.265 20.158 53.9005 16.0583 49.5837 13.1739C45.2669 10.2895 40.1918 8.75 35 8.75C27.6615 8.77761 20.6178 11.6411 15.3417 16.7417L8.75 23.3333" stroke="#E9004B" stroke-width="3" stroke-linecap="round" stroke-linejoin="round"/>
<path d="M8.75 8.75V23.3333H23.3333" stroke="#E9004B" stroke-width="3" stroke-linecap="round" stroke-linejoin="round"/>
</svg>
