<svg width="70" height="70" viewBox="0 0 70 70" fill="none" xmlns="http://www.w3.org/2000/svg">
<path d="M35 23.333C49.4975 23.333 61.25 19.4155 61.25 14.583C61.25 9.75052 49.4975 5.83301 35 5.83301C20.5025 5.83301 8.75 9.75052 8.75 14.583C8.75 19.4155 20.5025 23.333 35 23.333Z" stroke="#E9004B" stroke-width="3" stroke-linecap="round" stroke-linejoin="round"/>
<path d="M8.7502 14.583V55.4163C8.73395 56.819 9.72961 58.2024 11.6532 59.45C13.5769 60.6976 16.3721 61.7727 19.8033 62.5847C23.2345 63.3968 27.2011 63.9219 31.3687 64.116C35.5363 64.31 39.7828 64.1672 43.7502 63.6997" stroke="#E9004B" stroke-width="3" stroke-linecap="round" stroke-linejoin="round"/>
<path d="M61.25 14.583V23.333" stroke="#E9004B" stroke-width="3" stroke-linecap="round" stroke-linejoin="round"/>
<path d="M61.25 35L52.5 49.5833H64.1667L55.4167 64.1667" stroke="#E9004B" stroke-width="3" stroke-linecap="round" stroke-linejoin="round"/>
<path d="M8.75 35C8.75422 36.3636 9.7145 37.7081 11.5542 38.926C13.394 40.144 16.0623 41.2017 19.3461 42.0149C22.63 42.8281 26.4387 43.3742 30.4681 43.6096C34.4976 43.845 38.6363 43.7633 42.5542 43.3708" stroke="#E9004B" stroke-width="3" stroke-linecap="round" stroke-linejoin="round"/>
</svg>
