<svg width="80" height="82" viewBox="0 0 80 82" fill="none" xmlns="http://www.w3.org/2000/svg">
<rect y="0.931641" width="79.7966" height="80.25" rx="39.8983" fill="#873EFF"/>
<path d="M28.7503 59.1979C31.6561 59.1979 33.988 57.763 35.7458 54.4626L39.6561 47.1442V53.3504C39.6561 57.0096 42.0238 59.1979 45.683 59.1979C48.553 59.1979 50.6696 57.9423 52.7143 54.4626L61.7188 39.2518C63.6919 35.9155 62.2928 33.4043 57.952 33.4043C55.6202 33.4043 54.1135 34.1577 52.7503 36.7047L46.5441 48.364V37.9962C46.5441 34.911 45.0732 33.4043 42.3467 33.4043C40.1942 33.4043 38.4723 34.337 37.1449 36.92L31.2974 48.364V38.1038C31.2974 34.8034 29.9341 33.4043 26.6337 33.4043H19.8893C17.3423 33.4043 16.0508 34.5882 16.0508 36.7765C16.0508 38.9648 17.414 40.2204 19.8893 40.2204H22.6517V53.3146C22.6517 57.0096 25.127 59.1979 28.7503 59.1979Z" fill="white"/>
</svg>
