<svg width="70" height="70" viewBox="0 0 70 70" fill="none" xmlns="http://www.w3.org/2000/svg">
<path d="M32.0833 23.333H14.5833C11.3617 23.333 8.75 25.9447 8.75 29.1663V58.333C8.75 61.5547 11.3617 64.1664 14.5833 64.1664H32.0833C35.305 64.1664 37.9167 61.5547 37.9167 58.333V29.1663C37.9167 25.9447 35.305 23.333 32.0833 23.333Z" stroke="#E9004B" stroke-width="3" stroke-linecap="round" stroke-linejoin="round"/>
<path d="M14.582 11.6673C14.582 10.1202 15.1966 8.63649 16.2906 7.54253C17.3845 6.44857 18.8683 5.83398 20.4154 5.83398H55.4154C56.9624 5.83398 58.4462 6.44857 59.5401 7.54253C60.6341 8.63649 61.2487 10.1202 61.2487 11.6673V58.334C61.2487 59.8811 60.6341 61.3648 59.5401 62.4588C58.4462 63.5527 56.9624 64.1673 55.4154 64.1673H48.4154" stroke="#E9004B" stroke-width="3" stroke-linecap="round" stroke-linejoin="round"/>
<path d="M23.332 52.5H23.3539" stroke="#E9004B" stroke-width="3" stroke-linecap="round" stroke-linejoin="round"/>
</svg>
