<svg width="80" height="80" viewBox="0 0 80 80" fill="none" xmlns="http://www.w3.org/2000/svg">
<rect width="80" height="80" rx="40" fill="#F20800"/>
<g clip-path="url(#clip0_24226_1188)">
<path d="M59.4844 18H21.5156C19.574 18 18 19.574 18 21.5156V59.4844C18 61.426 19.574 63 21.5156 63H59.4844C61.426 63 63 61.426 63 59.4844V21.5156C63 19.574 61.426 18 59.4844 18Z" fill="#F20800"/>
<path d="M43.5033 31.8865C43.3606 31.8861 43.2185 31.8689 43.0797 31.8356L29.5445 28.5854C29.1548 28.491 28.8078 28.2693 28.5584 27.9553C28.3091 27.6414 28.1717 27.2531 28.168 26.8522C28.1644 26.4512 28.2947 26.0606 28.5384 25.7421C28.782 25.4237 29.125 25.1957 29.5129 25.0943L42.9953 21.6016C43.2604 21.5328 43.5376 21.5255 43.8059 21.5801C44.0742 21.6346 44.3265 21.7497 44.5436 21.9165C44.7608 22.0833 44.937 22.2974 45.0589 22.5426C45.1808 22.7877 45.2452 23.0575 45.2471 23.3313L45.291 30.0742C45.2938 30.5515 45.1072 31.0103 44.772 31.3501C44.4369 31.6899 43.9806 31.8828 43.5033 31.8865ZM43.1992 22.3574L29.7168 25.8537C29.4966 25.9103 29.3017 26.0391 29.1632 26.2193C29.0247 26.3996 28.9505 26.6211 28.9525 26.8485C28.9545 27.0758 29.0326 27.296 29.1743 27.4738C29.316 27.6516 29.5132 27.7768 29.7344 27.8295L43.2695 31.0797C43.4198 31.1157 43.5763 31.117 43.7271 31.0836C43.878 31.0502 44.0193 30.983 44.1403 30.887C44.2614 30.791 44.3591 30.6687 44.4259 30.5295C44.4928 30.3902 44.5272 30.2375 44.5264 30.083L44.4807 23.34C44.4794 23.1853 44.4429 23.0329 44.374 22.8944C44.305 22.7559 44.2055 22.6348 44.0829 22.5405C43.9602 22.4461 43.8177 22.3809 43.6661 22.3498C43.5146 22.3187 43.3579 22.3225 43.208 22.3609L43.1992 22.3574Z" fill="white"/>
<path d="M51.035 25.0664H29.9658C28.4465 25.0664 27.2148 26.2981 27.2148 27.8174V56.7018C27.2148 58.2211 28.4465 59.4527 29.9658 59.4527H51.035C52.5543 59.4527 53.7859 58.2211 53.7859 56.7018V27.8174C53.7859 26.2981 52.5543 25.0664 51.035 25.0664Z" fill="white"/>
<path d="M35.5906 54.8258C35.5325 54.8721 35.4663 54.9073 35.3955 54.9295C35.1934 54.9818 34.9807 54.9757 34.782 54.9119C34.7408 54.8988 34.7033 54.876 34.6727 54.8454C34.6421 54.8148 34.6193 54.7774 34.6062 54.7362C34.4984 54.401 34.4105 54.1297 34.3425 53.9223C34.274 53.7131 34.2212 53.5285 34.1826 53.3721H34.1562C34.1457 53.5971 34.1369 53.8045 34.1281 53.9909C34.1193 54.1772 34.1281 54.3547 34.1175 54.5305C34.107 54.7063 34.1175 54.8821 34.1052 55.0578C34.0929 55.2336 34.0947 55.4358 34.0824 55.6537C34.0194 55.6767 33.9539 55.692 33.8873 55.6994C33.8079 55.715 33.7273 55.7226 33.6464 55.7223C33.5101 55.7288 33.3743 55.7016 33.2509 55.6432C33.2049 55.6112 33.1683 55.5674 33.1451 55.5163C33.1219 55.4653 33.1129 55.4089 33.1191 55.3532L33.2949 52.4317C33.3473 52.362 33.4161 52.3065 33.4953 52.27C33.6313 52.2059 33.781 52.1763 33.9312 52.1838C34.0952 52.1756 34.2586 52.2095 34.4058 52.2823C34.5249 52.3489 34.615 52.4572 34.6589 52.5864C34.6923 52.6778 34.7293 52.7832 34.7679 52.901C34.8066 53.0188 34.8488 53.1418 34.8875 53.2684C34.9261 53.395 34.9701 53.5198 35.0087 53.6463C35.0474 53.7729 35.0808 53.8783 35.1107 53.9785H35.1388C35.2326 53.6563 35.3246 53.3469 35.4148 53.0504C35.5062 52.7481 35.5906 52.495 35.6662 52.2928C35.7354 52.259 35.8086 52.2342 35.8841 52.219C35.9837 52.195 36.0858 52.1832 36.1882 52.1838C36.342 52.1823 36.4943 52.2141 36.6347 52.277C36.6862 52.2955 36.7321 52.3269 36.7681 52.3681C36.8041 52.4093 36.829 52.459 36.8404 52.5125C36.8619 52.6288 36.8771 52.7462 36.8861 52.8641C36.906 53.0211 36.9253 53.1969 36.9441 53.3914C36.9634 53.5901 36.9828 53.801 37.0021 54.0225C37.0214 54.244 37.0373 54.4584 37.0531 54.6641C37.0689 54.8698 37.0882 55.0543 37.0988 55.2266C37.1093 55.3989 37.1181 55.5237 37.1216 55.6151C37.0579 55.6529 36.9884 55.6802 36.916 55.6959C36.8274 55.7172 36.7364 55.7267 36.6453 55.7241C36.5193 55.728 36.3942 55.7027 36.2796 55.6502C36.2281 55.6217 36.1857 55.5792 36.1574 55.5275C36.1291 55.4759 36.116 55.4172 36.1197 55.3584C36.0974 54.9412 36.0816 54.5668 36.0722 54.2352C36.0722 53.9012 36.0617 53.6235 36.0494 53.3985H36.0212C35.9826 53.5461 35.9281 53.7342 35.856 53.9592C35.7839 54.1842 35.6925 54.4742 35.5906 54.8258ZM37.7562 52.741C37.7513 52.6705 37.7615 52.5998 37.7862 52.5335C37.811 52.4673 37.8497 52.4072 37.8997 52.3572C37.9497 52.3072 38.0098 52.2685 38.076 52.2437C38.1423 52.219 38.213 52.2087 38.2836 52.2137H40.175C40.2062 52.2687 40.2293 52.3279 40.2435 52.3895C40.2664 52.4598 40.2777 52.5335 40.2769 52.6075C40.2825 52.6629 40.2768 52.7189 40.2602 52.772C40.2436 52.8252 40.2164 52.8744 40.1802 52.9168C40.1476 52.9481 40.109 52.9723 40.0666 52.988C40.0243 53.0037 39.9792 53.0106 39.9341 53.0082H38.7248V53.5356H40.0132C40.0459 53.5901 40.0696 53.6494 40.0836 53.7114C40.1066 53.7793 40.1179 53.8506 40.1169 53.9223C40.1282 54.034 40.0954 54.1456 40.0255 54.2334C39.9927 54.2643 39.9539 54.2882 39.9117 54.3039C39.8694 54.3196 39.8245 54.3267 39.7794 54.3248H38.7248V54.9137H40.1978C40.2286 54.9658 40.2517 55.022 40.2664 55.0807C40.2891 55.1505 40.3004 55.2235 40.2998 55.2969C40.3106 55.411 40.2758 55.5247 40.2031 55.6133C40.1702 55.6442 40.1316 55.6682 40.0893 55.6839C40.047 55.6996 40.002 55.7067 39.957 55.7047H38.2836C38.213 55.7097 38.1423 55.6994 38.076 55.6747C38.0098 55.6499 37.9497 55.6113 37.8997 55.5613C37.8497 55.5113 37.811 55.4511 37.7862 55.3849C37.7615 55.3187 37.7513 55.2479 37.7562 55.1774V52.741ZM44.0421 55.5535C43.9754 55.6133 43.8942 55.6545 43.8066 55.6731C43.5558 55.7395 43.2912 55.7334 43.0437 55.6555C42.9747 55.6281 42.9118 55.5873 42.8587 55.5354C42.8056 55.4835 42.7633 55.4215 42.7343 55.3532L42.1683 54.2106C42.1103 54.0928 42.0593 53.9821 42.0136 53.8784C41.9679 53.7746 41.9169 53.6481 41.8642 53.511H41.8291C41.8449 53.7184 41.8519 53.9276 41.8519 54.142C41.8519 54.3565 41.8519 54.5657 41.8519 54.7731V55.652C41.7877 55.6678 41.7225 55.6795 41.6568 55.6871C41.5728 55.6977 41.4883 55.7029 41.4037 55.703C41.329 55.7036 41.2543 55.6983 41.1804 55.6871C41.122 55.6775 41.067 55.6534 41.0205 55.6168C40.976 55.5807 40.9421 55.5334 40.922 55.4797C40.8972 55.4044 40.8859 55.3252 40.8886 55.2459V52.3842C40.9491 52.3002 41.0356 52.2384 41.1347 52.2084C41.2478 52.1695 41.3667 52.1499 41.4863 52.1504C41.6229 52.1494 41.7586 52.1726 41.8871 52.219C41.9567 52.2442 42.0203 52.2839 42.0736 52.3354C42.1269 52.3869 42.1688 52.4491 42.1964 52.5178L42.7871 53.6832C42.8451 53.8028 42.8961 53.9153 42.9418 54.0225C42.9875 54.1297 43.0384 54.2457 43.0912 54.3828H43.121C43.1052 54.1754 43.0947 53.9698 43.0912 53.7641C43.0877 53.5584 43.0912 53.351 43.0912 53.1436V52.2067C43.1537 52.1919 43.2171 52.1807 43.281 52.1733C43.366 52.1614 43.4518 52.1555 43.5377 52.1557C43.6722 52.1467 43.8064 52.1786 43.9226 52.2471C43.9732 52.2927 44.0117 52.3501 44.0347 52.4142C44.0577 52.4783 44.0645 52.5471 44.0545 52.6145L44.0421 55.5535ZM47.8619 54.3899C47.8647 54.5846 47.8276 54.7778 47.7529 54.9576C47.686 55.1233 47.5827 55.2717 47.4505 55.3918C47.3084 55.5155 47.1428 55.6094 46.9636 55.6678C46.5414 55.7967 46.0903 55.7967 45.6681 55.6678C45.4887 55.6099 45.3231 55.516 45.1812 55.3918C45.0481 55.2706 44.942 55.1227 44.8701 54.9576C44.8003 54.7766 44.7657 54.5839 44.7681 54.3899V52.2067L44.9685 52.1785C45.0556 52.1634 45.1438 52.1557 45.2322 52.1557C45.309 52.1543 45.3857 52.1619 45.4607 52.1785C45.5238 52.1875 45.584 52.211 45.6365 52.2471C45.6841 52.2843 45.7201 52.3343 45.7402 52.3912C45.7654 52.4677 45.7773 52.548 45.7753 52.6285V54.3864C45.7669 54.5439 45.8205 54.6986 45.9248 54.817C45.9769 54.8681 46.0387 54.9082 46.1067 54.9348C46.1747 54.9613 46.2473 54.9739 46.3203 54.9717C46.3933 54.9748 46.4662 54.9626 46.5343 54.9359C46.6024 54.9093 46.6642 54.8688 46.7158 54.817C46.7678 54.7586 46.8078 54.6905 46.8334 54.6166C46.8591 54.5427 46.8699 54.4644 46.8652 54.3864V52.2067L47.0656 52.1785C47.1527 52.1634 47.2409 52.1557 47.3293 52.1557C47.4061 52.1543 47.4828 52.1619 47.5578 52.1785C47.621 52.1871 47.6812 52.2106 47.7336 52.2471C47.7812 52.2843 47.8172 52.3343 47.8373 52.3912C47.8623 52.469 47.8736 52.5505 47.8707 52.6321L47.8619 54.3899Z" fill="#333333"/>
<path d="M35.7408 47.2767C35.7737 47.3312 35.798 47.3905 35.8129 47.4525C35.8376 47.5255 35.85 47.6021 35.8498 47.6792C35.8604 47.7996 35.8239 47.9193 35.7479 48.0132C35.713 48.046 35.6717 48.0714 35.6267 48.0877C35.5817 48.104 35.5338 48.111 35.4859 48.1081H34.2344V48.7814H35.5387C35.5747 48.8349 35.6009 48.8944 35.616 48.9572C35.6407 49.0302 35.6532 49.1068 35.6529 49.1839C35.6631 49.3026 35.6265 49.4205 35.551 49.5126C35.5161 49.5455 35.4749 49.5708 35.4298 49.5871C35.3848 49.6035 35.3369 49.6104 35.2891 49.6076H34.2449V50.8714C34.1767 50.8884 34.1074 50.9008 34.0375 50.9083C33.9465 50.9194 33.855 50.9253 33.7633 50.9259C33.6812 50.9266 33.5993 50.9184 33.519 50.9013C33.4555 50.8924 33.3952 50.8683 33.3432 50.831C33.2943 50.7921 33.2572 50.7403 33.2359 50.6816C33.2102 50.6004 33.1983 50.5154 33.2008 50.4302V47.8304C33.195 47.7562 33.2053 47.6816 33.2311 47.6118C33.2569 47.542 33.2974 47.4786 33.3501 47.426C33.4027 47.3733 33.4661 47.3328 33.5359 47.307C33.6057 47.2812 33.6803 47.2709 33.7545 47.2767H35.7408ZM36.1609 49.0767C36.1559 48.7959 36.2042 48.5168 36.3033 48.254C36.3945 48.0299 36.5309 47.8271 36.7041 47.6581C36.8747 47.4947 37.0777 47.3689 37.3 47.289C37.5391 47.2036 37.7915 47.1614 38.0453 47.1642C38.2969 47.1614 38.5469 47.2037 38.7836 47.289C39.0079 47.368 39.2129 47.4938 39.3848 47.6581C39.5607 47.8248 39.6976 48.0283 39.7856 48.254C39.8882 48.5159 39.9384 48.7954 39.9332 49.0767C39.9381 49.3592 39.8898 49.64 39.7908 49.9046C39.7031 50.1321 39.5669 50.3379 39.3918 50.5076C39.2203 50.6685 39.0175 50.7924 38.7959 50.8714C38.3087 51.0378 37.7801 51.0378 37.293 50.8714C37.0704 50.7887 36.8675 50.6606 36.6971 50.4952C36.5258 50.3241 36.3918 50.1194 36.3033 49.8941C36.2045 49.6331 36.1562 49.3557 36.1609 49.0767ZM37.2332 49.0767C37.2113 49.3643 37.2896 49.6506 37.4547 49.887C37.5254 49.9748 37.6156 50.0449 37.7181 50.0916C37.8207 50.1383 37.9327 50.1603 38.0453 50.156C38.1587 50.1605 38.2716 50.1385 38.375 50.0918C38.4784 50.0451 38.5696 49.975 38.6412 49.887C38.7851 49.6422 38.861 49.3633 38.861 49.0793C38.861 48.7953 38.7851 48.5165 38.6412 48.2716C38.5705 48.184 38.4802 48.1143 38.3776 48.0679C38.2751 48.0215 38.1631 47.9997 38.0506 48.0044C37.9375 48.0008 37.8251 48.023 37.7218 48.0693C37.6186 48.1156 37.5272 48.1848 37.4547 48.2716C37.2893 48.506 37.211 48.7907 37.2332 49.0767ZM40.3516 49.0767C40.3462 48.7957 40.3951 48.5164 40.4957 48.254C40.5857 48.0297 40.7216 47.8267 40.8947 47.6581C41.0653 47.4947 41.2683 47.3689 41.4906 47.289C41.7297 47.2036 41.9821 47.1614 42.2359 47.1642C42.4875 47.1614 42.7375 47.2037 42.9742 47.289C43.1989 47.3683 43.4043 47.4941 43.5772 47.6581C43.752 47.8253 43.8882 48.0287 43.9762 48.254C44.0788 48.5159 44.129 48.7954 44.1238 49.0767C44.1287 49.3592 44.0804 49.64 43.9815 49.9046C43.8937 50.1321 43.7576 50.3379 43.5824 50.5076C43.4109 50.6685 43.2081 50.7924 42.9865 50.8714C42.4994 51.0378 41.9708 51.0378 41.4836 50.8714C41.2583 50.7892 41.0534 50.6593 40.8829 50.4906C40.7124 50.322 40.5804 50.1185 40.4957 49.8941C40.3954 49.6335 40.3465 49.3559 40.3516 49.0767ZM41.4256 49.0767C41.4032 49.3641 41.4808 49.6503 41.6453 49.887C41.7161 49.9747 41.8063 50.0447 41.9088 50.0914C42.0114 50.1381 42.1234 50.1602 42.2359 50.156C42.3493 50.1605 42.4622 50.1385 42.5656 50.0918C42.6691 50.0451 42.7602 49.975 42.8318 49.887C42.9757 49.6422 43.0516 49.3633 43.0516 49.0793C43.0516 48.7953 42.9757 48.5165 42.8318 48.2716C42.7611 48.184 42.6708 48.1143 42.5683 48.0679C42.4657 48.0215 42.3537 47.9997 42.2412 48.0044C42.1281 48.0008 42.0157 48.023 41.9125 48.0693C41.8092 48.1156 41.7179 48.1848 41.6453 48.2716C41.4805 48.5062 41.4028 48.7909 41.4256 49.0767ZM45.7586 50.1138C45.8026 50.1226 45.8553 50.1296 45.9203 50.1384H46.0961C46.2223 50.1401 46.3478 50.1199 46.467 50.0786C46.5779 50.0419 46.6781 49.9786 46.7588 49.8941C46.8464 49.8032 46.9114 49.693 46.9486 49.5724C46.9997 49.4165 47.024 49.253 47.0207 49.089C47.0427 48.7989 46.9528 48.5114 46.7693 48.2857C46.6848 48.1944 46.5815 48.1226 46.4664 48.0752C46.3514 48.0279 46.2274 48.0061 46.1031 48.0115H45.9274C45.8729 48.0115 45.8149 48.022 45.7516 48.029L45.7586 50.1138ZM46.0926 50.9839H45.8606C45.7727 50.9839 45.6848 50.9716 45.5863 50.9593C45.4879 50.947 45.4018 50.9312 45.3051 50.9118C45.2178 50.8968 45.1324 50.8727 45.0502 50.8398C44.9549 50.8143 44.8708 50.7578 44.8113 50.6792C44.7517 50.6005 44.7201 50.5042 44.7215 50.4056V47.616C44.719 47.5816 44.7235 47.547 44.7347 47.5144C44.7459 47.4818 44.7635 47.4518 44.7865 47.4261C44.8408 47.3743 44.9064 47.3358 44.9781 47.3136C45.1537 47.2561 45.3354 47.2195 45.5195 47.2046C45.7111 47.1853 45.8817 47.1747 46.0328 47.1747C46.317 47.1715 46.6001 47.21 46.8731 47.289C47.1131 47.3569 47.3351 47.477 47.5234 47.6406C47.7099 47.8003 47.8547 48.003 47.9453 48.2312C48.051 48.5002 48.1018 48.7877 48.0947 49.0767C48.1005 49.3615 48.0522 49.6448 47.9524 49.9117C47.862 50.1388 47.7214 50.3425 47.541 50.5076C47.3577 50.6687 47.1419 50.7886 46.9082 50.8591C46.6447 50.9438 46.3694 50.9859 46.0926 50.9839Z" fill="#333333"/>
<path d="M47.8641 39.2829C47.8635 39.7747 47.7332 40.2576 47.4863 40.6829C47.2393 41.1082 46.8846 41.4608 46.4578 41.7052L41.8312 44.3682C41.4064 44.6127 40.9248 44.7414 40.4347 44.7414C39.9445 44.7414 39.4629 44.6127 39.0381 44.3682L34.4062 41.7052C33.9796 41.4607 33.6249 41.108 33.378 40.6828C33.1311 40.2575 33.0008 39.7746 33 39.2829V33.9479C33.0011 33.4563 33.1317 32.9736 33.3785 32.5483C33.6254 32.1231 33.9798 31.7704 34.4062 31.5257L39.0381 28.8556C39.4629 28.6111 39.9445 28.4824 40.4347 28.4824C40.9248 28.4824 41.4064 28.6111 41.8312 28.8556L46.4631 31.5257C46.8897 31.7701 47.2444 32.1228 47.4913 32.5481C47.7382 32.9733 47.8686 33.4562 47.8693 33.9479L47.8641 39.2829Z" fill="#F20800"/>
<path d="M45.5176 36.0328C45.9817 35.131 46.1645 34.1273 45.7127 33.6773C45.261 33.2273 44.259 33.4084 43.3573 33.8725C42.4555 34.3365 41.835 35.0133 41.7243 35.7305C41.5485 36.8748 41.7085 37.3529 41.0879 37.8398C40.7364 38.1193 35.9182 42.3539 35.3188 42.8795C34.7194 43.4051 34.6157 43.8973 35.0358 44.335C35.4735 44.7621 35.971 44.6461 36.4913 44.0502C37.0116 43.4543 41.2532 38.6273 41.5309 38.2793C42.0266 37.6623 42.5047 37.8205 43.6403 37.6447C44.3575 37.5322 45.036 36.91 45.4983 36.0117L45.5176 36.0328Z" fill="white"/>
<path d="M39.4435 35.6002C39.0919 35.217 36.2548 33.3432 36.1037 33.236C36.0843 33.2234 36.0609 33.2183 36.038 33.2217C36.0151 33.2252 35.9943 33.2368 35.9794 33.2545C35.9645 33.2722 35.9566 33.2948 35.9571 33.3179C35.9577 33.341 35.9667 33.3631 35.9824 33.3801C36.1582 33.5559 37.9406 35.2434 38.2271 35.5124C38.5136 35.7813 38.5787 35.9096 38.424 36.0573C38.2693 36.2049 38.0214 36.0063 37.8966 35.9096L35.3091 33.7739C35.158 33.6473 35.1035 33.6209 35.0419 33.6807C34.9804 33.7405 35.0085 33.7967 35.1351 33.9479C35.2318 34.0604 37.1724 36.4264 37.2709 36.5442C37.3693 36.662 37.5679 36.9168 37.4203 37.0715C37.2726 37.2262 37.1408 37.1629 36.8753 36.8764C36.6099 36.5899 34.9136 34.7934 34.7449 34.6247C34.7376 34.6134 34.7279 34.6038 34.7166 34.5965C34.7053 34.5892 34.6925 34.5844 34.6792 34.5824C34.6659 34.5804 34.6523 34.5813 34.6394 34.585C34.6264 34.5886 34.6144 34.595 34.6041 34.6037C34.5938 34.6123 34.5855 34.6231 34.5797 34.6352C34.5738 34.6474 34.5707 34.6606 34.5703 34.674C34.57 34.6875 34.5726 34.7009 34.5778 34.7133C34.583 34.7257 34.5909 34.7368 34.6007 34.7459C34.7062 34.8971 36.5818 37.7342 36.9615 38.0858C37.7015 38.752 38.649 38.1069 39.396 38.6131C39.6246 38.4145 39.832 38.2352 40.0113 38.0858C39.4435 37.3247 40.1273 36.3543 39.4435 35.6002Z" fill="white"/>
<path d="M44.9254 42.351L41.3764 39.2959C41.1883 39.5139 40.958 39.7758 40.7031 40.0693C41.793 41.335 43.3768 43.1736 43.7107 43.5656C44.2381 44.1721 44.9412 45.1143 45.7076 44.3479C46.474 43.5814 45.5318 42.873 44.9254 42.351Z" fill="white"/>
</g>
<defs>
<clipPath id="clip0_24226_1188">
<rect width="37" height="37" fill="white" transform="translate(18 22)"/>
</clipPath>
</defs>
</svg>
