<svg width="70" height="70" viewBox="0 0 70 70" fill="none" xmlns="http://www.w3.org/2000/svg">
<path d="M39.3763 20.4167C40.1817 20.4167 40.8346 19.7637 40.8346 18.9583C40.8346 18.1529 40.1817 17.5 39.3763 17.5C38.5709 17.5 37.918 18.1529 37.918 18.9583C37.918 19.7637 38.5709 20.4167 39.3763 20.4167Z" fill="#E9004B" stroke="#E9004B" stroke-width="3" stroke-linecap="round" stroke-linejoin="round"/>
<path d="M51.0404 32.0827C51.8458 32.0827 52.4987 31.4298 52.4987 30.6243C52.4987 29.8189 51.8458 29.166 51.0404 29.166C50.2349 29.166 49.582 29.8189 49.582 30.6243C49.582 31.4298 50.2349 32.0827 51.0404 32.0827Z" fill="#E9004B" stroke="#E9004B" stroke-width="3" stroke-linecap="round" stroke-linejoin="round"/>
<path d="M24.7904 23.3327C25.5958 23.3327 26.2487 22.6798 26.2487 21.8743C26.2487 21.0689 25.5958 20.416 24.7904 20.416C23.9849 20.416 23.332 21.0689 23.332 21.8743C23.332 22.6798 23.9849 23.3327 24.7904 23.3327Z" fill="#E9004B" stroke="#E9004B" stroke-width="3" stroke-linecap="round" stroke-linejoin="round"/>
<path d="M18.9583 37.9167C19.7637 37.9167 20.4167 37.2637 20.4167 36.4583C20.4167 35.6529 19.7637 35 18.9583 35C18.1529 35 17.5 35.6529 17.5 36.4583C17.5 37.2637 18.1529 37.9167 18.9583 37.9167Z" fill="#E9004B" stroke="#E9004B" stroke-width="3" stroke-linecap="round" stroke-linejoin="round"/>
<path d="M34.9987 5.83398C18.957 5.83398 5.83203 18.959 5.83203 35.0006C5.83203 51.0423 18.957 64.1673 34.9987 64.1673C37.6995 64.1673 39.8054 61.9915 39.8054 59.244C39.8054 57.9694 39.2804 56.8086 38.5308 55.9627C37.685 55.1198 37.2533 54.0611 37.2533 52.6815C37.2422 52.0396 37.3605 51.402 37.6011 50.8067C37.8417 50.2115 38.1996 49.6708 38.6536 49.2168C39.1076 48.7628 39.6483 48.4049 40.2435 48.1643C40.8388 47.9237 41.4764 47.8054 42.1183 47.8165H47.9399C56.8387 47.8165 64.142 40.5161 64.142 31.6173C64.0633 17.5357 50.9266 5.83398 34.9987 5.83398Z" stroke="#E9004B" stroke-width="3" stroke-linecap="round" stroke-linejoin="round"/>
</svg>
