<svg width="70" height="70" viewBox="0 0 70 70" fill="none" xmlns="http://www.w3.org/2000/svg">
<path d="M55.1562 27.5732C55.1562 28.5457 55.1562 29.5181 55.1562 30.4906C58.7011 30.4906 62.2459 30.4906 65.7907 30.4906C65.7907 29.5181 65.7907 28.5457 65.7907 27.5732C62.2459 27.5732 58.7011 27.5732 55.1562 27.5732Z" fill="#E9004B"/>
<path d="M56.3898 34.3789C55.95 35.2469 55.5102 36.1149 55.0703 36.9828C58.2349 38.5795 61.3894 40.1962 64.554 41.7929C64.9938 40.9249 65.4337 40.0569 65.8735 39.1889C62.7089 37.5923 59.5544 35.9756 56.3898 34.3789Z" fill="#E9004B"/>
<path d="M64.554 16.2734C61.3894 17.8701 58.2349 19.4868 55.0703 21.0835C55.5102 21.9514 55.95 22.8194 56.3898 23.6874C59.5487 22.0774 62.7146 20.4813 65.8735 18.8713C65.4337 18.0054 64.9938 17.1394 64.554 16.2734Z" fill="#E9004B"/>
<path d="M40.1408 14.9028C31.5056 17.7024 22.8683 20.4957 14.2326 23.2939C14.0683 23.2674 13.9192 23.1971 13.7484 23.1971H7.35107C5.5883 23.1971 4.12109 24.6643 4.12109 26.4271V37.8545C4.12109 39.6173 5.5883 41.0845 7.35107 41.0845H8.38216L15.3548 60.6182H25.6486L19.4336 42.07C26.3342 43.5011 33.2348 44.9327 40.1351 46.3652V46.4279C40.1351 49.5333 42.7714 52.0106 45.9513 52.0106C49.1313 52.0106 51.7676 49.5333 51.7676 46.4279V14.9712C51.7676 11.8658 49.1313 9.38281 45.9631 9.38281C42.795 9.38281 40.18 11.8302 40.1408 14.9028ZM45.9513 12.2995C47.6346 12.2995 48.8509 13.5031 48.8509 14.9712V46.4279C48.8509 47.896 47.6346 49.0939 45.9513 49.0939C44.268 49.0939 43.0518 47.896 43.0518 46.4279V14.9712C43.0518 13.5031 44.268 12.2995 45.9513 12.2995ZM40.1351 17.9676V43.3859C32.4276 41.7868 24.7201 40.1878 17.0125 38.5894V25.4587C24.72 22.9616 32.4279 20.4658 40.1351 17.9676ZM7.35107 26.1138H13.7484C13.9458 26.1138 14.0617 26.2297 14.0617 26.4271V30.6825H7.03776V26.4271C7.03776 26.2297 7.15367 26.1138 7.35107 26.1138ZM7.03776 33.5991H14.0617V37.8545C14.0617 38.0519 13.9458 38.1678 13.7484 38.1678H7.35107C7.15367 38.1678 7.03776 38.0519 7.03776 37.8545V33.5991ZM14.2155 40.9876C14.8514 41.1196 15.4879 41.2488 16.1239 41.3807L21.5926 57.7015H17.4113L11.4754 41.0845H13.7484C13.9134 41.0845 14.0566 41.0124 14.2155 40.9876Z" fill="#E9004B"/>
</svg>
