<svg width="70" height="70" viewBox="0 0 70 70" fill="none" xmlns="http://www.w3.org/2000/svg">
<path d="M8.75 8.75V55.4167C8.75 56.9638 9.36458 58.4475 10.4585 59.5415C11.5525 60.6354 13.0362 61.25 14.5833 61.25H61.25" stroke="#E9004B" stroke-width="3" stroke-linecap="round" stroke-linejoin="round"/>
<path d="M43.7513 37.916H23.3346C21.7238 37.916 20.418 39.2219 20.418 40.8327V46.666C20.418 48.2768 21.7238 49.5827 23.3346 49.5827H43.7513C45.3621 49.5827 46.668 48.2768 46.668 46.666V40.8327C46.668 39.2219 45.3621 37.916 43.7513 37.916Z" stroke="#E9004B" stroke-width="3" stroke-linecap="round" stroke-linejoin="round"/>
<path d="M52.5013 14.584H23.3346C21.7238 14.584 20.418 15.8898 20.418 17.5007V23.334C20.418 24.9448 21.7238 26.2507 23.3346 26.2507H52.5013C54.1121 26.2507 55.418 24.9448 55.418 23.334V17.5007C55.418 15.8898 54.1121 14.584 52.5013 14.584Z" stroke="#E9004B" stroke-width="3" stroke-linecap="round" stroke-linejoin="round"/>
</svg>
