<svg width="86" height="80" viewBox="0 0 86 80" fill="none" xmlns="http://www.w3.org/2000/svg">
<path d="M29.9926 59.0707L19.3799 71.6228C19.0116 72.074 18.8079 72.6781 18.8126 73.3052C18.8172 73.9322 19.0299 74.532 19.4048 74.9754C19.7797 75.4188 20.2868 75.6703 20.817 75.6759C21.3472 75.6814 21.858 75.4405 22.2394 75.0049L32.8521 62.4528C33.0395 62.2312 33.1881 61.9681 33.2895 61.6785C33.3909 61.389 33.4431 61.0787 33.4431 60.7652C33.4431 60.4518 33.3909 60.1415 33.2895 59.8519C33.1881 59.5624 33.0395 59.2993 32.8521 59.0777C32.6648 58.8561 32.4423 58.6803 32.1975 58.5603C31.9527 58.4404 31.6903 58.3787 31.4253 58.3787C31.1603 58.3787 30.8979 58.4404 30.6531 58.5603C30.4083 58.6803 30.1859 58.8561 29.9985 59.0777L29.9926 59.0707Z" fill="#02060C"/>
<path d="M74.5811 71.8222L49.2797 46.3605L52.9028 42.7535C56.1122 44.6835 60.2423 44.9297 62.1773 44.9297C62.6711 44.9297 63.0113 44.9297 63.1515 44.9297C63.4752 44.912 63.7914 44.8256 64.079 44.6764C64.3666 44.5273 64.6191 44.3187 64.8195 44.0646L74.7146 31.4868C75.088 31.0111 75.2566 30.407 75.1834 29.8073C75.1102 29.2076 74.8012 28.6615 74.3243 28.2891C73.8473 27.9167 73.2416 27.7485 72.6404 27.8215C72.0391 27.8945 71.4916 28.2028 71.1182 28.6784L61.8971 40.3644C59.9899 40.3508 58.0991 40.0132 56.3057 39.3662L69.3968 26.3159C69.8135 25.8854 70.044 25.3088 70.0387 24.7104C70.0334 24.112 69.7928 23.5396 69.3685 23.1165C68.9442 22.6933 68.3703 22.4533 67.7704 22.448C67.1704 22.4427 66.5923 22.6727 66.1607 23.0883L53.0696 36.1452C52.4113 34.3565 52.0704 32.4671 52.062 30.5618L64.0322 21.378C64.2697 21.1953 64.4687 20.9678 64.618 20.7084C64.7673 20.4491 64.8639 20.1629 64.9023 19.8663C64.9408 19.5696 64.9202 19.2684 64.8419 18.9797C64.7636 18.691 64.629 18.4205 64.4459 18.1836C64.2628 17.9468 64.0346 17.7483 63.7746 17.5993C63.5145 17.4504 63.2276 17.3541 62.9302 17.3158C62.6328 17.2774 62.3307 17.2979 62.0413 17.376C61.7518 17.4542 61.4806 17.5884 61.2432 17.771L48.3989 27.6269C48.1395 27.827 47.926 28.0802 47.773 28.3695C47.6199 28.6588 47.5307 28.9774 47.5115 29.304C47.4715 30.0094 47.2446 35.5197 49.6734 39.5326L46.0636 43.1262L21.0424 17.9707C20.6136 17.5446 20.033 17.3053 19.4277 17.3052C18.8229 17.3075 18.2431 17.5464 17.813 17.9707L17.4727 18.3101C17.097 18.6891 16.8618 19.1843 16.8055 19.7143C16.7454 20.3798 16.7188 21.1184 16.7188 21.8372C16.7655 29.4038 20.5353 38.2681 27.9216 48.1906C31.2341 52.6372 34.8882 56.8202 38.8508 60.7018C39.0923 60.9308 39.3811 61.1043 39.6969 61.2101C40.0128 61.3158 40.348 61.3513 40.6791 61.3141L45.1896 60.8083C45.7912 60.7404 46.3412 60.4368 46.7185 59.9644C47.0957 59.492 47.2694 58.8895 47.2013 58.2894C47.1331 57.6893 46.8288 57.1408 46.3552 56.7645C45.8815 56.3882 45.2775 56.215 44.6758 56.283L41.2529 56.6623C37.8233 53.2217 23.658 38.3613 21.5562 24.9583L71.3384 75.0099C71.5515 75.2217 71.8044 75.3894 72.0827 75.5036C72.3609 75.6178 72.6589 75.6762 72.9598 75.6754C73.4106 75.674 73.8509 75.5398 74.2256 75.2897C74.6002 75.0397 74.8925 74.6848 75.0657 74.2697C75.2388 73.8545 75.2853 73.3976 75.1991 72.9563C75.1129 72.515 74.8979 72.1088 74.5811 71.7889V71.8222Z" fill="#02060C"/>
<path d="M15.4458 80C14.9557 79.9971 14.4835 79.8033 14.1182 79.4553C8.82189 74.3597 4.80543 67.9361 2.43374 60.768C0.0620505 53.5999 -0.589699 45.9146 0.537701 38.4102C1.6651 30.9058 4.53592 23.8202 8.88934 17.7972C13.2428 11.7741 18.9408 7.00448 25.4658 3.9216C31.9908 0.838722 39.136 -0.4597 46.2521 0.144297C53.3683 0.748295 60.2299 3.23557 66.2137 7.38015C72.1974 11.5247 77.1136 17.1953 80.5155 23.8766C83.9175 30.5579 85.6975 38.0382 85.6937 45.638C85.6937 56.4967 81.3416 67.4727 73.4471 76.5459C73.2698 76.7491 73.0566 76.9132 72.8197 77.0288C72.5828 77.1443 72.3269 77.2091 72.0665 77.2193C71.8061 77.2295 71.5463 77.1851 71.3021 77.0885C71.0578 76.9919 70.8338 76.845 70.6429 76.6562C70.452 76.4674 70.2978 76.2404 70.1893 75.9883C70.0807 75.7361 70.0199 75.4636 70.0103 75.1864C70.0007 74.9092 70.0424 74.6327 70.1332 74.3726C70.224 74.1126 70.3619 73.8741 70.5393 73.6709C77.7538 65.3975 81.7237 55.4281 81.7237 45.638C81.7161 38.7508 80.0934 31.9746 77.0027 25.9242C73.912 19.8738 69.4512 14.7406 64.025 10.9904C58.5988 7.24015 52.3789 4.99157 45.9296 4.44862C39.4803 3.90567 33.0058 5.08553 27.0933 7.88117C21.1809 10.6768 16.0176 14.9998 12.0721 20.4578C8.12649 25.9158 5.52342 32.3363 4.49904 39.1366C3.47466 45.9369 4.06137 52.9019 6.20596 59.3996C8.35054 65.8974 11.9851 71.7223 16.78 76.3459C17.0671 76.635 17.2668 77.0087 17.3535 77.4192C17.4402 77.8296 17.4101 78.2583 17.2669 78.6505C17.1237 79.0426 16.874 79.3805 16.5497 79.6208C16.2253 79.8612 15.841 79.9932 15.4458 80Z" fill="#02060C"/>
</svg>
