<svg width="48" height="48" viewBox="0 0 48 48" fill="none" xmlns="http://www.w3.org/2000/svg"><g clip-path="url(#clip0_15258_34546)"><path d="M43.5839 37.4076C42.858 39.0845 41.9988 40.6282 41.0033 42.0474C39.6463 43.9822 38.5352 45.3214 37.6789 46.0651C36.3516 47.2858 34.9294 47.9109 33.4065 47.9465C32.3132 47.9465 30.9947 47.6354 29.4599 47.0043C27.9201 46.3762 26.5051 46.0651 25.2112 46.0651C23.8542 46.0651 22.3988 46.3762 20.8421 47.0043C19.2831 47.6354 18.0271 47.9643 17.0668 47.9969C15.6064 48.0591 14.1508 47.4161 12.6978 46.0651C11.7704 45.2562 10.6105 43.8696 9.22087 41.9052C7.72995 39.8075 6.50422 37.375 5.54395 34.6017C4.51554 31.6063 4 28.7056 4 25.8974C4 22.6806 4.69509 19.9062 6.08734 17.5812C7.18153 15.7137 8.63718 14.2406 10.4591 13.1591C12.2809 12.0777 14.2495 11.5266 16.3694 11.4913C17.5293 11.4913 19.0505 11.8501 20.9408 12.5553C22.8258 13.2628 24.0361 13.6216 24.5667 13.6216C24.9635 13.6216 26.308 13.2021 28.5874 12.3656C30.7428 11.59 32.562 11.2688 34.0524 11.3953C38.0908 11.7212 41.1247 13.3132 43.1425 16.1812C39.5307 18.3696 37.7441 21.4347 37.7797 25.3667C37.8123 28.4295 38.9233 30.9781 41.107 33.0018C42.0966 33.941 43.2017 34.6669 44.4313 35.1824C44.1646 35.9557 43.8832 36.6965 43.5839 37.4076ZM34.322 0.96125C34.322 3.3618 33.445 5.60318 31.6969 7.67779C29.5873 10.1441 27.0357 11.5692 24.2687 11.3443C24.2334 11.0564 24.213 10.7533 24.213 10.4347C24.213 8.13022 25.2162 5.66392 26.9978 3.64739C27.8872 2.62638 29.0185 1.77743 30.3903 1.10021C31.7591 0.433087 33.0539 0.0641546 34.2716 0.000976562C34.3072 0.321892 34.322 0.642829 34.322 0.961219V0.96125Z" fill="black"/></g><defs><clipPath id="clip0_15258_34546"><rect width="48" height="48" fill="white"/></clipPath></defs></svg>